<svg xmlns="http://www.w3.org/2000/svg" viewBox="0 0 685 132" width="685" height="132" role="img" aria-label="Shahrzad Tehrani"><path fill="#241d1b" d="M30.35 101.05Q25.6 101.05 22.575000000000003 99.69999999999999Q19.55 98.35 17.875 97.0Q16.2 95.65 15.55 95.65Q15.25 95.65 14.575 96.475Q13.9 97.3 13.100000000000001 98.4Q12.3 99.5 11.600000000000001 100.35Q10.9 101.2 10.5 101.2Q10.25 101.2 9.975000000000001 100.975Q9.700000000000001 100.75 9.600000000000001 100.45L5.7 79.7Q5.7 79.4 5.7 79.25Q5.7 79.1 5.800000000000001 79.05Q5.95 78.95 6.1 79.05000000000001Q6.25 79.15 6.3500000000000005 79.35Q10.200000000000001 87.45 14.05 91.975Q17.900000000000002 96.5 21.75 98.325Q25.6 100.15 29.450000000000003 100.15Q35.050000000000004 100.15 38.375 97.05000000000001Q41.7 93.95 41.7 88.1Q41.7 84.55 40.225 81.525Q38.75 78.5 35.175 75.9Q31.6 73.3 25.35 71.05Q17.6 68.2 12.975000000000001 64.9Q8.35 61.599999999999994 6.3 57.599999999999994Q4.25 53.599999999999994 4.25 48.65Q4.25 42.8 7.175000000000001 38.375Q10.100000000000001 33.95 15.175 31.475Q20.25 29.0 26.700000000000003 29.0Q31.1 29.0 33.925 30.074999999999996Q36.75 31.14999999999999 38.375 32.24999999999999Q40.0 33.349999999999994 40.7 33.349999999999994Q41.300000000000004 33.349999999999994 42.45 32.224999999999994Q43.6 31.099999999999994 44.7 29.974999999999994Q45.800000000000004 28.849999999999994 46.25 28.849999999999994Q46.45 28.849999999999994 46.650000000000006 28.974999999999994Q46.85 29.099999999999994 46.900000000000006 29.450000000000003L52.150000000000006 50.349999999999994Q52.2 50.599999999999994 52.2 50.75Q52.2 50.9 52.050000000000004 51.0Q51.95 51.05 51.800000000000004 50.949999999999996Q51.650000000000006 50.849999999999994 51.5 50.699999999999996Q47.400000000000006 42.599999999999994 43.47500000000001 38.074999999999996Q39.550000000000004 33.55 35.6 31.724999999999994Q31.650000000000002 29.89999999999999 27.400000000000002 29.89999999999999Q21.900000000000002 29.89999999999999 18.325000000000003 33.37499999999999Q14.75 36.849999999999994 14.75 43.05Q14.75 46.699999999999996 16.200000000000003 49.8Q17.650000000000002 52.9 21.075000000000003 55.55Q24.5 58.199999999999996 30.5 60.449999999999996Q38.6 63.4 43.25 66.7Q47.900000000000006 70.0 49.85000000000001 73.825Q51.800000000000004 77.65 51.800000000000004 82.25Q51.800000000000004 87.5 49.275000000000006 91.75Q46.75 96.0 41.95 98.525Q37.15 101.05 30.35 101.05Z M72.85000000000001 26.64999999999999V97.35Q72.85000000000001 97.95 73.15 98.325Q73.45 98.7 74.05000000000001 98.85L77.0 99.3Q77.5 99.4 77.5 99.7Q77.5 100.0 77.10000000000001 100.0H58.050000000000004Q57.95 100.0 57.825 99.9Q57.7 99.8 57.7 99.7Q57.7 99.55 57.85 99.425Q58.0 99.3 58.35 99.25L61.25 98.85Q61.900000000000006 98.7 62.175000000000004 98.325Q62.45 97.95 62.45 97.4V31.25Q62.45 30.950000000000003 62.325 30.799999999999997Q62.2 30.64999999999999 61.85 30.64999999999999H58.25Q58.050000000000004 30.64999999999999 57.95 30.549999999999997Q57.85 30.450000000000003 57.85 30.299999999999997Q57.85 30.14999999999999 57.975 30.074999999999996Q58.1 30.0 58.25 29.950000000000003L71.45 26.25Q71.85000000000001 26.14999999999999 72.025 26.124999999999993Q72.2 26.099999999999994 72.35000000000001 26.099999999999994Q72.60000000000001 26.099999999999994 72.72500000000001 26.249999999999993Q72.85000000000001 26.39999999999999 72.85000000000001 26.64999999999999ZM72.0 65.55 71.55000000000001 65.1 73.30000000000001 63.5Q78.15 59.15 81.65 57.25Q85.15 55.349999999999994 88.30000000000001 55.349999999999994Q92.9 55.349999999999994 95.47500000000001 58.3Q98.05000000000001 61.25 98.85000000000001 67.44999999999999L102.7 97.0Q102.80000000000001 97.8 103.15 98.3Q103.5 98.8 104.30000000000001 98.95L106.85000000000001 99.35Q107.10000000000001 99.4 107.20000000000002 99.475Q107.30000000000001 99.55 107.30000000000001 99.7Q107.30000000000001 99.8 107.20000000000002 99.9Q107.10000000000001 100.0 106.9 100.0H87.5Q87.05000000000001 100.0 87.05000000000001 99.7Q87.05000000000001 99.45 87.60000000000001 99.3L90.65 98.85Q91.5 98.7 91.825 98.2Q92.15 97.7 92.05000000000001 97.0L88.6 68.5Q88.0 64.05 86.475 62.0Q84.95 59.949999999999996 81.9 59.949999999999996Q79.9 59.949999999999996 77.95 60.949999999999996Q76.0 61.949999999999996 73.7 64.05Z M134.85 95.35V94.95L134.35 95.4V64.25Q134.35 60.199999999999996 132.725 58.074999999999996Q131.1 55.949999999999996 127.95 55.949999999999996Q124.45 55.949999999999996 122.775 57.64999999999999Q121.10000000000001 59.349999999999994 121.10000000000001 61.349999999999994V65.1Q121.10000000000001 67.35 119.55000000000001 68.875Q118.0 70.4 115.55 70.4Q113.8 70.4 112.65 69.30000000000001Q111.5 68.2 111.5 66.0Q111.5 63.4 113.525 60.95Q115.55 58.5 119.5 56.9Q123.45 55.3 129.2 55.3Q137.05 55.3 140.925 58.675Q144.8 62.05 144.8 68.15V94.4Q144.8 96.3 145.45000000000002 97.125Q146.10000000000002 97.95 147.05 97.95Q147.95 97.95 148.65 97.4Q149.35000000000002 96.85 149.5 95.65Q149.55 95.45 149.625 95.4Q149.7 95.35 149.75 95.35Q149.9 95.35 149.95 95.4Q150.0 95.45 150.0 95.65Q150.0 96.5 149.2 97.725Q148.4 98.95 146.65 99.9Q144.9 100.85 142.0 100.85Q138.3 100.85 136.575 99.32499999999999Q134.85 97.8 134.85 95.35ZM109.05 90.35Q109.05 85.05 113.42500000000001 81.775Q117.80000000000001 78.5 127.05000000000001 78.5Q130.35 78.5 132.5 79.125Q134.65 79.75 136.45 80.7L136.1 81.05Q134.3 80.2 132.35000000000002 79.7Q130.4 79.2 128.0 79.2Q123.9 79.2 121.7 81.75Q119.5 84.3 119.5 88.8Q119.5 93.15 121.6 95.525Q123.7 97.9 127.05000000000001 97.9Q129.35 97.9 131.6 96.85Q133.85 95.8 135.35 93.85L135.85 94.15Q133.65 97.4 129.825 99.15Q126.0 100.9 121.60000000000001 100.9Q116.0 100.9 112.525 97.95Q109.05 95.0 109.05 90.35Z M167.95000000000002 26.64999999999999V97.35Q167.95000000000002 97.95 168.25 98.325Q168.55 98.7 169.15 98.85L172.10000000000002 99.3Q172.60000000000002 99.4 172.60000000000002 99.7Q172.60000000000002 100.0 172.20000000000002 100.0H153.15Q153.05 100.0 152.925 99.9Q152.8 99.8 152.8 99.7Q152.8 99.55 152.95000000000002 99.425Q153.10000000000002 99.3 153.45000000000002 99.25L156.35000000000002 98.85Q157.0 98.7 157.275 98.325Q157.55 97.95 157.55 97.4V31.25Q157.55 30.950000000000003 157.425 30.799999999999997Q157.3 30.64999999999999 156.95000000000002 30.64999999999999H153.35000000000002Q153.15 30.64999999999999 153.05 30.549999999999997Q152.95000000000002 30.450000000000003 152.95000000000002 30.299999999999997Q152.95000000000002 30.14999999999999 153.07500000000002 30.074999999999996Q153.20000000000002 30.0 153.35000000000002 29.950000000000003L166.55 26.25Q166.95000000000002 26.14999999999999 167.125 26.124999999999993Q167.3 26.099999999999994 167.45000000000002 26.099999999999994Q167.70000000000002 26.099999999999994 167.82500000000002 26.249999999999993Q167.95000000000002 26.39999999999999 167.95000000000002 26.64999999999999ZM167.10000000000002 65.55 166.65 65.1 168.4 63.5Q173.25 59.15 176.75 57.25Q180.25 55.349999999999994 183.4 55.349999999999994Q188.0 55.349999999999994 190.575 58.3Q193.15 61.25 193.95000000000002 67.44999999999999L197.8 97.0Q197.9 97.8 198.25 98.3Q198.60000000000002 98.8 199.4 98.95L201.95000000000002 99.35Q202.20000000000002 99.4 202.3 99.475Q202.4 99.55 202.4 99.7Q202.4 99.8 202.3 99.9Q202.20000000000002 100.0 202.0 100.0H182.60000000000002Q182.15 100.0 182.15 99.7Q182.15 99.45 182.70000000000002 99.3L185.75 98.85Q186.60000000000002 98.7 186.925 98.2Q187.25 97.7 187.15 97.0L183.70000000000002 68.5Q183.10000000000002 64.05 181.57500000000002 62.0Q180.05 59.949999999999996 177.0 59.949999999999996Q175.0 59.949999999999996 173.05 60.949999999999996Q171.10000000000002 61.949999999999996 168.8 64.05Z M218.20000000000002 75.55Q218.20000000000002 68.85 220.10000000000002 64.375Q222.0 59.9 224.95 57.625Q227.9 55.349999999999994 231.05 55.349999999999994Q234.70000000000002 55.349999999999994 236.65000000000003 57.574999999999996Q238.60000000000002 59.8 238.60000000000002 63.8Q238.60000000000002 67.1 237.07500000000002 68.725Q235.55 70.35 233.25 70.35Q231.10000000000002 70.35 230.0 69.125Q228.9 67.9 228.8 65.5L228.75 64.0Q228.75 62.35 228.10000000000002 61.525Q227.45000000000002 60.699999999999996 225.85000000000002 60.699999999999996Q224.10000000000002 60.699999999999996 222.47500000000002 62.375Q220.85000000000002 64.05 219.8 67.4Q218.75 70.75 218.75 75.8ZM218.75 56.349999999999994V73.25V97.1Q218.75 97.65 219.075 98.05000000000001Q219.4 98.45 220.0 98.6L224.95000000000002 99.35Q225.25 99.4 225.325 99.475Q225.4 99.55 225.4 99.7Q225.4 99.8 225.3 99.9Q225.20000000000002 100.0 224.95000000000002 100.0H204.10000000000002Q203.9 100.0 203.75 99.875Q203.60000000000002 99.75 203.60000000000002 99.65Q203.60000000000002 99.55 203.77500000000003 99.425Q203.95000000000002 99.3 204.25 99.25L207.15 98.85Q207.8 98.7 208.07500000000002 98.35Q208.35000000000002 98.0 208.35000000000002 97.55V60.5Q208.35000000000002 60.199999999999996 208.22500000000002 60.0Q208.10000000000002 59.8 207.75 59.8H204.05Q203.95000000000002 59.8 203.82500000000002 59.699999999999996Q203.70000000000002 59.599999999999994 203.70000000000002 59.5Q203.70000000000002 59.349999999999994 203.82500000000002 59.25Q203.95000000000002 59.15 204.15 59.099999999999994L217.35000000000002 55.9Q217.70000000000002 55.8 217.90000000000003 55.775Q218.10000000000002 55.75 218.25 55.75Q218.55 55.75 218.65 55.925Q218.75 56.099999999999994 218.75 56.349999999999994Z M276.75 57.599999999999994 252.35000000000002 99.55 250.70000000000002 99.25H264.0Q266.25 99.25 268.025 98.45Q269.8 97.65 271.6 95.525Q273.40000000000003 93.4 275.6 89.4L277.70000000000005 85.35Q277.8 85.15 277.925 85.05000000000001Q278.05 84.95 278.20000000000005 85.05Q278.3 85.1 278.35 85.25Q278.40000000000003 85.4 278.3 85.75L275.40000000000003 100.3Q275.3 100.75 275.225 100.9Q275.15000000000003 101.05 275.0 101.05Q274.65000000000003 101.05 273.875 100.525Q273.1 100.0 271.8 100.0H241.70000000000002Q241.55 100.0 241.45000000000002 99.925Q241.35000000000002 99.85 241.35000000000002 99.7Q241.35000000000002 99.55 241.425 99.35Q241.5 99.15 241.70000000000002 98.8L266.3 56.75L268.15000000000003 57.099999999999994H254.10000000000002Q252.35000000000002 57.099999999999994 250.85000000000002 57.875Q249.35000000000002 58.65 247.90000000000003 60.525Q246.45000000000002 62.4 244.8 65.75L242.60000000000002 70.05Q242.45000000000002 70.3 242.3 70.425Q242.15 70.55 241.95000000000002 70.5Q241.8 70.45 241.75 70.275Q241.70000000000002 70.1 241.75 69.7L244.4 56.349999999999994Q244.5 55.849999999999994 244.60000000000002 55.675Q244.70000000000002 55.5 244.9 55.5Q245.25 55.5 246.0 55.925Q246.75 56.349999999999994 248.0 56.349999999999994H276.75Q276.90000000000003 56.349999999999994 277.0 56.39999999999999Q277.1 56.449999999999996 277.1 56.65Q277.1 56.8 277.025 57.0Q276.95 57.199999999999996 276.75 57.599999999999994Z M307.7 95.35V94.95L307.2 95.4V64.25Q307.2 60.199999999999996 305.575 58.074999999999996Q303.95 55.949999999999996 300.8 55.949999999999996Q297.3 55.949999999999996 295.625 57.64999999999999Q293.95 59.349999999999994 293.95 61.349999999999994V65.1Q293.95 67.35 292.4 68.875Q290.85 70.4 288.40000000000003 70.4Q286.65000000000003 70.4 285.5 69.30000000000001Q284.35 68.2 284.35 66.0Q284.35 63.4 286.375 60.95Q288.40000000000003 58.5 292.35 56.9Q296.3 55.3 302.05 55.3Q309.90000000000003 55.3 313.77500000000003 58.675Q317.65000000000003 62.05 317.65000000000003 68.15V94.4Q317.65000000000003 96.3 318.30000000000007 97.125Q318.95000000000005 97.95 319.90000000000003 97.95Q320.8 97.95 321.5 97.4Q322.20000000000005 96.85 322.35 95.65Q322.40000000000003 95.45 322.475 95.4Q322.55 95.35 322.6 95.35Q322.75 95.35 322.8 95.4Q322.85 95.45 322.85 95.65Q322.85 96.5 322.05 97.725Q321.25 98.95 319.5 99.9Q317.75 100.85 314.85 100.85Q311.15000000000003 100.85 309.425 99.32499999999999Q307.7 97.8 307.7 95.35ZM281.90000000000003 90.35Q281.90000000000003 85.05 286.27500000000003 81.775Q290.65000000000003 78.5 299.90000000000003 78.5Q303.2 78.5 305.35 79.125Q307.5 79.75 309.3 80.7L308.95 81.05Q307.15000000000003 80.2 305.20000000000005 79.7Q303.25 79.2 300.85 79.2Q296.75 79.2 294.55 81.75Q292.35 84.3 292.35 88.8Q292.35 93.15 294.45000000000005 95.525Q296.55 97.9 299.90000000000003 97.9Q302.2 97.9 304.45 96.85Q306.7 95.8 308.2 93.85L308.7 94.15Q306.5 97.4 302.675 99.15Q298.85 100.9 294.45 100.9Q288.85 100.9 285.375 97.95Q281.90000000000003 95.0 281.90000000000003 90.35Z M358.20000000000005 94.05V93.8V31.25Q358.20000000000005 30.950000000000003 358.05000000000007 30.799999999999997Q357.90000000000003 30.64999999999999 357.55 30.64999999999999H354.00000000000006Q353.8 30.64999999999999 353.70000000000005 30.549999999999997Q353.6 30.450000000000003 353.6 30.299999999999997Q353.6 30.14999999999999 353.70000000000005 30.074999999999996Q353.8 30.0 354.00000000000006 29.950000000000003L367.15000000000003 26.25Q367.6 26.14999999999999 367.75 26.124999999999993Q367.90000000000003 26.099999999999994 368.1 26.099999999999994Q368.35 26.099999999999994 368.475 26.249999999999993Q368.6 26.39999999999999 368.6 26.64999999999999V97.35Q368.6 97.95 368.875 98.325Q369.15000000000003 98.7 369.80000000000007 98.85L372.75000000000006 99.3Q373.05000000000007 99.35 373.1500000000001 99.44999999999999Q373.25000000000006 99.55 373.25000000000006 99.7Q373.25000000000006 99.8 373.1500000000001 99.9Q373.05000000000007 100.0 372.85 100.0H359.55Q358.90000000000003 100.0 358.55000000000007 99.625Q358.20000000000005 99.25 358.20000000000005 98.45ZM326.3 79.35Q326.3 71.9 329.1 66.525Q331.90000000000003 61.15 336.57500000000005 58.25Q341.25000000000006 55.349999999999994 346.90000000000003 55.349999999999994Q351.90000000000003 55.349999999999994 355.20000000000005 57.375Q358.50000000000006 59.4 360.55 62.9L359.70000000000005 63.3Q358.15000000000003 60.3 355.5 58.525Q352.85 56.75 349.20000000000005 56.75Q345.75000000000006 56.75 342.95000000000005 58.95Q340.15000000000003 61.15 338.5 65.9Q336.85 70.65 336.85 78.35Q336.85 85.2 338.27500000000003 89.7Q339.70000000000005 94.2 342.25 96.4Q344.8 98.6 348.1 98.6Q350.65000000000003 98.6 353.475 97.15Q356.3 95.7 358.90000000000003 92.4L359.40000000000003 92.95Q355.6 97.4 352.17500000000007 99.2Q348.75000000000006 101.0 344.6 101.0Q339.3 101.0 335.15000000000003 98.375Q331.00000000000006 95.75 328.65000000000003 90.875Q326.3 86.0 326.3 79.35Z"/><path fill="#8f1d33" d="M414.55000000000007 28.799999999999997Q416.6 28.799999999999997 419.975 29.349999999999994Q423.35 29.89999999999999 427.225 30.724999999999994Q431.1 31.549999999999997 434.80000000000007 32.4Q438.50000000000006 33.25 441.32500000000005 33.824999999999996Q444.15000000000003 34.39999999999999 445.30000000000007 34.39999999999999Q447.15000000000003 34.39999999999999 448.17500000000007 33.8Q449.20000000000005 33.2 449.40000000000003 31.950000000000003Q449.6 30.89999999999999 449.40000000000003 29.424999999999997Q449.20000000000005 27.950000000000003 449.35 26.25Q449.55000000000007 24.450000000000003 450.57500000000005 23.375Q451.6 22.299999999999997 453.15000000000003 22.299999999999997Q454.6 22.299999999999997 455.6 23.474999999999994Q456.6 24.64999999999999 456.55000000000007 26.75Q456.50000000000006 30.599999999999994 453.7750000000001 32.949999999999996Q451.05000000000007 35.3 447.30000000000007 35.3Q445.25000000000006 35.3 441.95000000000005 34.699999999999996Q438.65000000000003 34.099999999999994 434.75 33.199999999999996Q430.85 32.3 426.975 31.424999999999997Q423.1 30.549999999999997 419.82500000000005 29.949999999999996Q416.55000000000007 29.349999999999994 414.45000000000005 29.349999999999994Q410.80000000000007 29.349999999999994 408.92500000000007 30.599999999999994Q407.05000000000007 31.849999999999994 406.70000000000005 34.0Q406.40000000000003 36.05 406.92500000000007 37.449999999999996Q407.45000000000005 38.849999999999994 408.05000000000007 40.05Q408.65000000000003 41.25 408.6 42.699999999999996Q408.50000000000006 44.349999999999994 407.42500000000007 45.425Q406.35 46.5 404.50000000000006 46.449999999999996Q402.40000000000003 46.349999999999994 401.225 44.27499999999999Q400.05000000000007 42.199999999999996 400.65000000000003 38.8Q401.1 35.89999999999999 402.77500000000003 33.64999999999999Q404.45000000000005 31.39999999999999 407.42500000000007 30.099999999999994Q410.40000000000003 28.799999999999997 414.55000000000007 28.799999999999997ZM416.90000000000003 96.2Q416.55000000000007 97.35 416.9000000000001 97.975Q417.25000000000006 98.6 418.25000000000006 98.7L423.45000000000005 99.25Q424.05000000000007 99.3 424.05000000000007 99.65Q424.05000000000007 99.8 423.92500000000007 99.9Q423.80000000000007 100.0 423.50000000000006 100.0H399.25000000000006Q399.05000000000007 100.0 398.9000000000001 99.925Q398.75000000000006 99.85 398.75000000000006 99.65Q398.75000000000006 99.45 398.92500000000007 99.35Q399.1 99.25 399.35 99.25L404.40000000000003 98.65Q405.30000000000007 98.55 405.82500000000005 98.0Q406.35 97.45 406.70000000000005 96.3Q407.50000000000006 93.75 408.75000000000006 89.625Q410.00000000000006 85.5 411.475 80.35Q412.95000000000005 75.2 414.6 69.55Q416.25000000000006 63.9 417.85 58.2Q419.45000000000005 52.5 420.92500000000007 47.3Q422.40000000000003 42.099999999999994 423.625 37.824999999999996Q424.85 33.55 425.6 30.75L435.05000000000007 32.75Q434.15000000000003 35.55 432.92500000000007 39.775Q431.70000000000005 44.0 430.225 49.125Q428.75000000000006 54.25 427.20000000000005 59.75Q425.65000000000003 65.25 424.1 70.7Q422.55000000000007 76.15 421.17500000000007 81.075Q419.80000000000007 86.0 418.70000000000005 89.9Q417.6 93.8 416.90000000000003 96.2Z M444.15000000000003 78.9Q444.15000000000003 78.9 446.1 78.17500000000001Q448.05000000000007 77.45 451.1 76.30000000000001Q454.15000000000003 75.15 457.42500000000007 73.92500000000001Q460.70000000000005 72.7 463.475 71.7Q466.25000000000006 70.7 467.6 70.25L466.65000000000003 71.15Q467.1 70.1 467.40000000000003 68.52499999999999Q467.70000000000005 66.94999999999999 467.70000000000005 64.55Q467.75000000000006 61.0 466.57500000000005 58.724999999999994Q465.40000000000003 56.449999999999996 463.40000000000003 56.449999999999996Q461.1 56.449999999999996 458.80000000000007 58.125Q456.50000000000006 59.8 454.475 62.925Q452.45000000000005 66.05 450.90000000000003 70.475Q449.35 74.9 448.6 80.45Q447.50000000000006 88.15 449.975 92.275Q452.45000000000005 96.4 457.65000000000003 96.4Q460.6 96.4 463.225 95.15Q465.85 93.9 468.07500000000005 91.375Q470.30000000000007 88.85 472.00000000000006 84.9Q472.15000000000003 84.65 472.27500000000003 84.525Q472.40000000000003 84.4 472.55000000000007 84.4Q472.70000000000005 84.45 472.75000000000006 84.65Q472.80000000000007 84.85 472.70000000000005 85.2Q470.75000000000006 90.15 467.75000000000006 93.65Q464.75000000000006 97.15 460.7750000000001 99.0Q456.80000000000007 100.85 451.85 100.85Q447.40000000000003 100.85 444.27500000000003 98.725Q441.15000000000003 96.6 439.80000000000007 92.425Q438.45000000000005 88.25 439.25000000000006 82.2Q440.00000000000006 76.75 442.25000000000006 71.925Q444.50000000000006 67.1 447.85 63.39999999999999Q451.20000000000005 59.699999999999996 455.27500000000003 57.625Q459.35 55.55 463.75000000000006 55.55Q467.40000000000003 55.55 469.77500000000003 57.099999999999994Q472.15000000000003 58.65 473.32500000000005 61.2Q474.50000000000006 63.75 474.40000000000003 66.69999999999999Q474.40000000000003 67.25 474.70000000000005 67.525Q475.00000000000006 67.8 475.80000000000007 67.75Q476.1 67.69999999999999 476.225 67.77499999999999Q476.35 67.85 476.40000000000003 68.0Q476.45000000000005 68.15 476.32500000000005 68.275Q476.20000000000005 68.4 475.95000000000005 68.5Q475.40000000000003 68.65 472.875 69.55000000000001Q470.35 70.45 466.77500000000003 71.725Q463.20000000000005 73.0 459.30000000000007 74.375Q455.40000000000003 75.75 452.0 76.975Q448.6 78.2 446.475 78.95Q444.35 79.7 444.35 79.7Z M488.4000000000001 84.65Q490.30000000000007 78.65 492.8500000000001 74.075Q495.4000000000001 69.5 498.1500000000001 66.425Q500.9000000000001 63.35 503.5000000000001 61.775Q506.1000000000001 60.199999999999996 508.00000000000006 60.199999999999996Q510.25000000000006 60.199999999999996 510.87500000000006 62.0Q511.50000000000006 63.8 509.9000000000001 68.9L502.6500000000001 91.85Q501.70000000000005 94.9 501.80000000000007 96.9Q501.9000000000001 98.9 503.1500000000001 99.875Q504.4000000000001 100.85 506.80000000000007 100.85Q510.75000000000006 100.85 513.7750000000001 98.85Q516.8000000000001 96.85 518.95 93.35Q519.1500000000001 92.95 519.1750000000001 92.725Q519.2 92.5 519.0500000000001 92.5Q518.9000000000001 92.45 518.7750000000001 92.55000000000001Q518.6500000000001 92.65 518.45 92.95Q516.4000000000001 95.5 515.0250000000001 96.4Q513.6500000000001 97.3 512.5500000000001 97.3Q511.30000000000007 97.3 510.8500000000001 95.85Q510.4000000000001 94.4 511.8500000000001 89.75L518.8000000000001 67.69999999999999Q519.95 64.1 520.0250000000001 61.425Q520.1 58.75 518.8000000000001 57.25Q517.5000000000001 55.75 514.4000000000001 55.75Q510.80000000000007 55.75 506.6500000000001 57.875Q502.50000000000006 60.0 498.32500000000005 64.675Q494.1500000000001 69.35 490.3500000000001 77.1L490.55000000000007 77.2L500.70000000000005 41.0Q501.9000000000001 36.65 504.0000000000001 34.125Q506.1000000000001 31.599999999999994 508.6250000000001 30.525Q511.1500000000001 29.450000000000003 513.6500000000001 29.450000000000003Q515.2500000000001 29.450000000000003 516.7250000000001 30.200000000000003Q518.2 30.950000000000003 519.625 31.924999999999997Q521.0500000000001 32.89999999999999 522.5 33.64999999999999Q523.95 34.39999999999999 525.45 34.39999999999999Q527.2 34.39999999999999 528.2 33.574999999999996Q529.2 32.75 529.2 31.5Q529.2 29.75 527.3000000000001 28.6Q525.4000000000001 27.450000000000003 521.5500000000001 27.450000000000003Q512.0500000000001 27.450000000000003 505.62500000000006 30.35Q499.20000000000005 33.25 495.1500000000001 39.025Q491.1000000000001 44.8 488.70000000000005 53.5L477.1000000000001 95.6Q476.55000000000007 97.7 476.50000000000006 98.85Q476.45000000000005 100.0 477.12500000000006 100.425Q477.80000000000007 100.85 479.4000000000001 100.85Q483.05000000000007 100.85 485.12500000000006 99.9Q487.20000000000005 98.95 487.20000000000005 97.5Q487.20000000000005 96.8 486.85 96.25Q486.50000000000006 95.7 486.50000000000006 94.85Q486.50000000000006 93.9 486.62500000000006 92.55000000000001Q486.75000000000006 91.2 487.17500000000007 89.275Q487.6000000000001 87.35 488.4000000000001 84.65Z M527.0 64.75Q526.95 64.69999999999999 526.95 64.57499999999999Q526.95 64.44999999999999 527.1 64.19999999999999Q528.9 61.5 530.975 59.625Q533.0500000000001 57.75 535.2750000000001 56.75Q537.5 55.75 539.7 55.75Q542.0 55.75 543.1500000000001 56.8Q544.3000000000001 57.849999999999994 544.3000000000001 59.9Q544.3000000000001 61.5 543.825 63.349999999999994Q543.35 65.19999999999999 542.475 67.69999999999999Q541.6 70.2 540.4000000000001 73.67500000000001Q539.2 77.15 537.7 81.9L537.4 81.75Q539.15 76.25 541.5 71.525Q543.85 66.8 546.55 63.25Q549.25 59.699999999999996 552.125 57.724999999999994Q555.0 55.75 557.9 55.75Q560.6 55.75 561.825 57.55Q563.0500000000001 59.349999999999994 562.8000000000001 62.1Q562.5500000000001 63.9 561.8000000000001 65.225Q561.0500000000001 66.55 559.875 67.3Q558.7 68.05 557.3000000000001 68.05Q555.95 68.05 555.05 67.32499999999999Q554.15 66.6 554.15 65.3Q554.15 64.3 554.375 63.45Q554.6 62.6 554.6 61.8Q554.6 60.8 554.3 60.25Q554.0 59.699999999999996 553.2 59.699999999999996Q551.15 59.699999999999996 548.375 62.44999999999999Q545.6 65.19999999999999 542.6500000000001 70.77499999999999Q539.7 76.35 537.15 84.8Q536.25 87.8 535.6500000000001 89.94999999999999Q535.0500000000001 92.1 535.0500000000001 93.7Q535.0500000000001 94.65 535.475 95.225Q535.9 95.8 536.325 96.175Q536.75 96.55 536.75 97.0Q536.75 97.7 535.55 98.625Q534.35 99.55 532.35 100.19999999999999Q530.35 100.85 528.0 100.85Q526.45 100.85 525.7750000000001 100.19999999999999Q525.1 99.55 525.175 98.3Q525.25 97.05 525.8000000000001 95.2L534.25 67.94999999999999Q535.75 63.15 535.5 61.525Q535.25 59.9 533.8000000000001 59.9Q532.8000000000001 59.9 531.375 60.825Q529.95 61.75 527.65 64.4Q527.45 64.65 527.3 64.725Q527.15 64.8 527.0 64.75Z M592.6 88.75Q591.25 94.05 591.425 95.675Q591.6 97.3 593.05 97.3Q594.15 97.3 595.5 96.4Q596.85 95.5 598.85 92.95Q599.1 92.65 599.225 92.55000000000001Q599.35 92.45 599.5 92.5Q599.65 92.5 599.625 92.725Q599.6 92.95 599.4 93.35Q597.25 96.85 594.25 98.85Q591.25 100.85 587.6 100.85Q585.15 100.85 584.0 99.69999999999999Q582.85 98.55 582.85 96.3Q582.85 95.35 583.1 93.8Q583.35 92.25 583.875 90.0Q584.4 87.75 585.2 84.775Q586.0 81.8 587.1 78.05L587.5 78.25Q584.9 85.05 581.825 90.125Q578.75 95.2 575.125 98.025Q571.5 100.85 567.2 100.85Q562.5 100.85 560.125 97.175Q557.75 93.5 558.85 85.65Q559.4 80.95 561.4 76.525Q563.4 72.1 566.5 68.32499999999999Q569.6 64.55 573.575 61.724999999999994Q577.55 58.9 582.05 57.3Q586.55 55.699999999999996 591.35 55.699999999999996Q594.45 55.699999999999996 596.825 56.14999999999999Q599.2 56.599999999999994 600.575 57.199999999999996Q601.95 57.8 601.95 58.199999999999996Q601.95 58.65 601.55 58.849999999999994Q601.15 59.05 600.75 59.275Q600.35 59.5 600.25 60.0ZM567.6 87.0Q566.65 92.85 567.95 95.4Q569.25 97.95 571.45 97.95Q573.25 97.95 575.175 96.55000000000001Q577.1 95.15 579.1 92.30000000000001Q581.1 89.45 583.2 85.1Q585.3 80.75 587.4 74.9Q589.5 69.05 591.55 61.65Q592.2 59.25 591.975 57.95Q591.75 56.65 590.05 56.65Q586.9 56.65 583.9 58.349999999999994Q580.9 60.05 578.25 62.99999999999999Q575.6 65.94999999999999 573.425 69.82499999999999Q571.25 73.7 569.75 78.075Q568.25 82.45 567.6 87.0Z M606.8 64.75Q606.6999999999999 64.69999999999999 606.75 64.55Q606.8 64.4 606.9 64.19999999999999Q609.6 60.15 612.925 57.95Q616.25 55.75 619.5 55.75Q621.75 55.75 622.925 56.775Q624.1 57.8 624.1 60.05Q624.1 61.65 623.45 64.05Q622.8 66.44999999999999 621.9 68.975Q621.0 71.5 620.2249999999999 73.575Q619.4499999999999 75.65 619.3 76.65L619.0 76.55Q621.6999999999999 70.7 624.775 66.725Q627.85 62.75 630.925 60.325Q634.0 57.9 636.925 56.825Q639.85 55.75 642.25 55.75Q645.3 55.75 646.625 57.224999999999994Q647.9499999999999 58.699999999999996 647.875 61.375Q647.8 64.05 646.65 67.69999999999999L639.75 89.75Q638.25 94.4 638.7 95.85Q639.15 97.3 640.4 97.3Q641.5 97.3 642.875 96.4Q644.25 95.5 646.3 92.95Q646.55 92.65 646.675 92.55000000000001Q646.8 92.45 646.9499999999999 92.5Q647.1 92.5 647.075 92.725Q647.05 92.95 646.85 93.35Q644.65 96.85 641.65 98.85Q638.65 100.85 634.6999999999999 100.85Q632.25 100.85 631.0 99.875Q629.75 98.9 629.675 96.9Q629.6 94.9 630.5 91.85L637.75 68.9Q639.35 63.8 638.75 62.0Q638.15 60.199999999999996 635.9 60.199999999999996Q634.3 60.199999999999996 631.95 61.5Q629.6 62.8 626.9 65.65Q624.1999999999999 68.5 621.525 73.1Q618.85 77.7 616.65 84.3Q615.65 87.45 615.0999999999999 89.525Q614.55 91.6 614.325 92.875Q614.1 94.15 614.1 94.95Q614.1 95.8 614.45 96.3Q614.8 96.8 614.8 97.55Q614.8 98.9 612.75 99.875Q610.6999999999999 100.85 607.15 100.85Q604.8 100.85 604.375 99.8Q603.9499999999999 98.75 604.65 96.5L614.05 67.94999999999999Q615.65 63.199999999999996 615.3499999999999 61.55Q615.05 59.9 613.6 59.9Q612.6 59.9 611.175 60.825Q609.75 61.75 607.4499999999999 64.4Q607.25 64.6 607.125 64.69999999999999Q607.0 64.8 606.8 64.75Z M664.0 89.75Q662.5 94.2 662.9 95.75Q663.3 97.3 664.65 97.3Q665.75 97.3 667.125 96.4Q668.5 95.5 670.55 92.95Q670.8 92.65 670.925 92.55000000000001Q671.05 92.45 671.1999999999999 92.5Q671.3499999999999 92.5 671.3249999999999 92.725Q671.3 92.95 671.0999999999999 93.35Q668.9 96.85 665.875 98.85Q662.8499999999999 100.85 658.9 100.85Q656.55 100.85 655.275 99.875Q654.0 98.9 653.875 96.9Q653.75 94.9 654.75 91.85L662.6999999999999 68.0Q664.3 63.25 664.025 61.575Q663.75 59.9 662.3 59.9Q661.25 59.9 659.825 60.825Q658.4 61.75 656.0999999999999 64.4Q655.9499999999999 64.6 655.8 64.69999999999999Q655.65 64.8 655.5 64.75Q655.4 64.69999999999999 655.425 64.55Q655.4499999999999 64.4 655.5999999999999 64.19999999999999Q658.25 60.15 661.45 57.95Q664.65 55.75 667.9499999999999 55.75Q670.0999999999999 55.75 671.3999999999999 56.75Q672.6999999999999 57.75 672.9499999999999 59.925Q673.1999999999999 62.1 672.05 65.5ZM670.4 48.3Q668.5999999999999 48.3 667.6499999999999 47.324999999999996Q666.6999999999999 46.349999999999994 666.6999999999999 44.849999999999994Q666.6999999999999 43.199999999999996 667.675 41.175Q668.65 39.15 670.275 37.675Q671.9 36.199999999999996 673.8 36.199999999999996Q675.9499999999999 36.199999999999996 676.875 37.175Q677.8 38.15 677.8 39.599999999999994Q677.8 41.599999999999994 676.8499999999999 43.599999999999994Q675.9 45.599999999999994 674.2249999999999 46.949999999999996Q672.55 48.3 670.4 48.3Z"/></svg>